<svg width="22" height="24" viewBox="0 0 22 24" fill="none" xmlns="http://www.w3.org/2000/svg">
<path d="M11.47 10C11.1229 10 10.7836 10.1173 10.495 10.3371C10.2064 10.5568 9.98143 10.8692 9.8486 11.2346C9.71577 11.6001 9.68102 12.0022 9.74873 12.3902C9.81645 12.7781 9.9836 13.1345 10.229 13.4142C10.4745 13.6939 10.7872 13.8844 11.1276 13.9616C11.4681 14.0387 11.8209 13.9991 12.1416 13.8478C12.4623 13.6964 12.7364 13.44 12.9292 13.1111C13.1221 12.7822 13.225 12.3956 13.225 12C13.225 11.4696 13.0401 10.9609 12.711 10.5858C12.3819 10.2107 11.9355 10 11.47 10ZM5.32751 10C4.9804 10 4.64109 10.1173 4.35248 10.3371C4.06388 10.5568 3.83893 10.8692 3.7061 11.2346C3.57327 11.6001 3.53852 12.0022 3.60623 12.3902C3.67395 12.7781 3.8411 13.1345 4.08654 13.4142C4.33198 13.6939 4.64469 13.8844 4.98513 13.9616C5.32556 14.0387 5.67844 13.9991 5.99912 13.8478C6.3198 13.6964 6.5939 13.44 6.78674 13.1111C6.97958 12.7822 7.08251 12.3956 7.08251 12C7.08251 11.4696 6.89761 10.9609 6.56848 10.5858C6.23936 10.2107 5.79297 10 5.32751 10ZM17.6125 10C17.2654 10 16.9261 10.1173 16.6375 10.3371C16.3489 10.5568 16.1239 10.8692 15.9911 11.2346C15.8583 11.6001 15.8235 12.0022 15.8912 12.3902C15.9589 12.7781 16.1261 13.1345 16.3715 13.4142C16.617 13.6939 16.9297 13.8844 17.2701 13.9616C17.6106 14.0387 17.9634 13.9991 18.2841 13.8478C18.6048 13.6964 18.8789 13.44 19.0717 13.1111C19.2646 12.7822 19.3675 12.3956 19.3675 12C19.3675 11.4696 19.1826 10.9609 18.8535 10.5858C18.5244 10.2107 18.078 10 17.6125 10Z" fill="#959595"/>
</svg>
