<svg width="21" height="20" viewBox="0 0 21 20" fill="none" xmlns="http://www.w3.org/2000/svg">
<path d="M13.2067 7.32508L9.63169 10.9084L8.25669 9.53341C8.18199 9.44618 8.09005 9.37533 7.98667 9.32531C7.88328 9.27529 7.77067 9.24718 7.6559 9.24275C7.54114 9.23832 7.42669 9.25766 7.31976 9.29955C7.21282 9.34145 7.1157 9.40499 7.03448 9.48621C6.95327 9.56742 6.88972 9.66454 6.84783 9.77148C6.80593 9.87842 6.78659 9.99286 6.79103 10.1076C6.79546 10.2224 6.82357 10.335 6.87359 10.4384C6.92361 10.5418 6.99446 10.6337 7.08169 10.7084L9.04003 12.6751C9.11789 12.7523 9.21024 12.8134 9.31177 12.8549C9.4133 12.8964 9.52202 12.9174 9.63169 12.9167C9.85031 12.9158 10.0598 12.829 10.215 12.6751L14.3817 8.50842C14.4598 8.43095 14.5218 8.33878 14.5641 8.23723C14.6064 8.13568 14.6282 8.02676 14.6282 7.91675C14.6282 7.80674 14.6064 7.69782 14.5641 7.59627C14.5218 7.49472 14.4598 7.40255 14.3817 7.32508C14.2256 7.16987 14.0143 7.08275 13.7942 7.08275C13.574 7.08275 13.3628 7.16987 13.2067 7.32508ZM10.94 1.66675C9.29185 1.66675 7.68068 2.15549 6.31027 3.07117C4.93986 3.98685 3.87176 5.28834 3.24103 6.81105C2.6103 8.33377 2.44527 10.0093 2.76682 11.6258C3.08836 13.2423 3.88203 14.7272 5.04747 15.8926C6.21291 17.0581 7.69777 17.8517 9.31427 18.1733C10.9308 18.4948 12.6063 18.3298 14.1291 17.6991C15.6518 17.0683 16.9533 16.0002 17.8689 14.6298C18.7846 13.2594 19.2734 11.6483 19.2734 10.0001C19.2734 8.90573 19.0578 7.8221 18.639 6.81105C18.2202 5.80001 17.6064 4.88135 16.8326 4.10752C16.0588 3.3337 15.1401 2.71987 14.1291 2.30109C13.118 1.8823 12.0344 1.66675 10.94 1.66675ZM10.94 16.6667C9.62148 16.6667 8.33255 16.2758 7.23622 15.5432C6.1399 14.8107 5.28541 13.7695 4.78083 12.5513C4.27625 11.3331 4.14422 9.99269 4.40146 8.69948C4.65869 7.40627 5.29363 6.21839 6.22598 5.28604C7.15833 4.35369 8.34622 3.71875 9.63942 3.46151C10.9326 3.20428 12.2731 3.3363 13.4912 3.84088C14.7094 4.34547 15.7506 5.19995 16.4832 6.29628C17.2157 7.39261 17.6067 8.68154 17.6067 10.0001C17.6067 11.7682 16.9043 13.4639 15.6541 14.7141C14.4038 15.9644 12.7081 16.6667 10.94 16.6667Z" fill="#A7A7A7"/>
</svg>
