<svg width="21" height="20" viewBox="0 0 21 20" fill="none" xmlns="http://www.w3.org/2000/svg">
<path d="M13.2067 7.32496L9.63169 10.9083L8.25669 9.53329C8.18199 9.44606 8.09005 9.37521 7.98667 9.32519C7.88328 9.27517 7.77067 9.24706 7.6559 9.24263C7.54114 9.23819 7.42669 9.25753 7.31976 9.29943C7.21282 9.34132 7.1157 9.40487 7.03448 9.48608C6.95327 9.5673 6.88972 9.66442 6.84783 9.77136C6.80593 9.87829 6.78659 9.99274 6.79103 10.1075C6.79546 10.2223 6.82357 10.3349 6.87359 10.4383C6.92361 10.5417 6.99446 10.6336 7.08169 10.7083L9.04003 12.675C9.11789 12.7522 9.21024 12.8133 9.31177 12.8548C9.4133 12.8962 9.52202 12.9173 9.63169 12.9166C9.85031 12.9157 10.0598 12.8289 10.215 12.675L14.3817 8.50829C14.4598 8.43082 14.5218 8.33866 14.5641 8.23711C14.6064 8.13556 14.6282 8.02664 14.6282 7.91663C14.6282 7.80662 14.6064 7.69769 14.5641 7.59615C14.5218 7.4946 14.4598 7.40243 14.3817 7.32496C14.2256 7.16975 14.0143 7.08263 13.7942 7.08263C13.574 7.08263 13.3628 7.16975 13.2067 7.32496ZM10.94 1.66663C9.29185 1.66663 7.68068 2.15537 6.31027 3.07105C4.93986 3.98672 3.87176 5.28821 3.24103 6.81093C2.6103 8.33365 2.44527 10.0092 2.76682 11.6257C3.08836 13.2422 3.88203 14.7271 5.04747 15.8925C6.21291 17.058 7.69777 17.8516 9.31427 18.1732C10.9308 18.4947 12.6063 18.3297 14.1291 17.699C15.6518 17.0682 16.9533 16.0001 17.8689 14.6297C18.7846 13.2593 19.2734 11.6481 19.2734 9.99996C19.2734 8.90561 19.0578 7.82198 18.639 6.81093C18.2202 5.79988 17.6064 4.88122 16.8326 4.1074C16.0588 3.33358 15.1401 2.71975 14.1291 2.30096C13.118 1.88217 12.0344 1.66663 10.94 1.66663ZM10.94 16.6666C9.62148 16.6666 8.33255 16.2756 7.23622 15.5431C6.1399 14.8105 5.28541 13.7694 4.78083 12.5512C4.27625 11.333 4.14422 9.99256 4.40146 8.69936C4.65869 7.40615 5.29363 6.21826 6.22598 5.28591C7.15833 4.35356 8.34622 3.71863 9.63942 3.46139C10.9326 3.20416 12.2731 3.33618 13.4912 3.84076C14.7094 4.34535 15.7506 5.19983 16.4832 6.29616C17.2157 7.39249 17.6067 8.68142 17.6067 9.99996C17.6067 11.7681 16.9043 13.4638 15.6541 14.714C14.4038 15.9642 12.7081 16.6666 10.94 16.6666Z" fill="#A7A7A7"/>
</svg>
