<svg width="21" height="20" viewBox="0 0 21 20" fill="none" xmlns="http://www.w3.org/2000/svg">
<path d="M10.94 1.66663C9.29185 1.66663 7.68068 2.15537 6.31027 3.07105C4.93986 3.98672 3.87176 5.28821 3.24103 6.81093C2.6103 8.33365 2.44527 10.0092 2.76682 11.6257C3.08836 13.2422 3.88203 14.7271 5.04747 15.8925C6.21291 17.058 7.69777 17.8516 9.31427 18.1732C10.9308 18.4947 12.6063 18.3297 14.1291 17.699C15.6518 17.0682 16.9533 16.0001 17.8689 14.6297C18.7846 13.2593 19.2734 11.6481 19.2734 9.99996C19.2734 8.90561 19.0578 7.82198 18.639 6.81093C18.2202 5.79988 17.6064 4.88122 16.8326 4.1074C16.0588 3.33358 15.1401 2.71975 14.1291 2.30096C13.118 1.88217 12.0344 1.66663 10.94 1.66663ZM10.94 16.6666C9.62148 16.6666 8.33255 16.2756 7.23622 15.5431C6.1399 14.8105 5.28541 13.7694 4.78083 12.5512C4.27625 11.333 4.14422 9.99256 4.40146 8.69936C4.65869 7.40615 5.29363 6.21826 6.22598 5.28591C7.15833 4.35356 8.34622 3.71863 9.63942 3.46139C10.9326 3.20416 12.2731 3.33618 13.4912 3.84076C14.7094 4.34535 15.7506 5.19983 16.4832 6.29616C17.2157 7.39249 17.6067 8.68142 17.6067 9.99996C17.6067 11.7681 16.9043 13.4638 15.6541 14.714C14.4038 15.9642 12.7081 16.6666 10.94 16.6666ZM13.5234 10.525L11.7734 9.51663V5.83329C11.7734 5.61228 11.6856 5.40032 11.5293 5.24404C11.373 5.08776 11.161 4.99996 10.94 4.99996C10.719 4.99996 10.5071 5.08776 10.3508 5.24404C10.1945 5.40032 10.1067 5.61228 10.1067 5.83329V9.99996C10.1067 9.99996 10.1067 10.0666 10.1067 10.1C10.1116 10.1574 10.1257 10.2136 10.1484 10.2666C10.1655 10.3161 10.1879 10.3636 10.215 10.4083C10.2378 10.4557 10.2658 10.5004 10.2984 10.5416L10.4317 10.65L10.5067 10.725L12.6734 11.975C12.8004 12.0469 12.944 12.0843 13.09 12.0833C13.2745 12.0846 13.4543 12.0246 13.601 11.9127C13.7478 11.8009 13.8532 11.6435 13.9009 11.4652C13.9486 11.287 13.9357 11.0979 13.8644 10.9278C13.793 10.7576 13.6672 10.6159 13.5067 10.525H13.5234Z" fill="#00A9DE"/>
</svg>
