<svg width="21" height="20" viewBox="0 0 21 20" fill="none" xmlns="http://www.w3.org/2000/svg">
<path d="M10.94 1.66675C9.29185 1.66675 7.68068 2.15549 6.31027 3.07117C4.93986 3.98685 3.87176 5.28834 3.24103 6.81105C2.6103 8.33377 2.44527 10.0093 2.76682 11.6258C3.08836 13.2423 3.88203 14.7272 5.04747 15.8926C6.21291 17.0581 7.69777 17.8517 9.31427 18.1733C10.9308 18.4948 12.6063 18.3298 14.1291 17.6991C15.6518 17.0683 16.9533 16.0002 17.8689 14.6298C18.7846 13.2594 19.2734 11.6483 19.2734 10.0001C19.2734 8.90573 19.0578 7.8221 18.639 6.81105C18.2202 5.80001 17.6064 4.88135 16.8326 4.10752C16.0588 3.3337 15.1401 2.71987 14.1291 2.30109C13.118 1.8823 12.0344 1.66675 10.94 1.66675ZM10.94 16.6667C9.62148 16.6667 8.33255 16.2758 7.23622 15.5432C6.1399 14.8107 5.28541 13.7695 4.78083 12.5513C4.27625 11.3331 4.14422 9.99269 4.40146 8.69948C4.65869 7.40627 5.29363 6.21839 6.22598 5.28604C7.15833 4.35369 8.34622 3.71875 9.63942 3.46151C10.9326 3.20428 12.2731 3.3363 13.4912 3.84088C14.7094 4.34547 15.7506 5.19995 16.4832 6.29628C17.2157 7.39261 17.6067 8.68154 17.6067 10.0001C17.6067 11.7682 16.9043 13.4639 15.6541 14.7141C14.4038 15.9644 12.7081 16.6667 10.94 16.6667ZM13.5234 10.5251L11.7734 9.51675V5.83342C11.7734 5.6124 11.6856 5.40044 11.5293 5.24416C11.373 5.08788 11.161 5.00008 10.94 5.00008C10.719 5.00008 10.5071 5.08788 10.3508 5.24416C10.1945 5.40044 10.1067 5.6124 10.1067 5.83342V10.0001C10.1067 10.0001 10.1067 10.0667 10.1067 10.1001C10.1116 10.1575 10.1257 10.2138 10.1484 10.2667C10.1655 10.3162 10.1879 10.3637 10.215 10.4084C10.2378 10.4558 10.2658 10.5005 10.2984 10.5417L10.4317 10.6501L10.5067 10.7251L12.6734 11.9751C12.8004 12.0471 12.944 12.0844 13.09 12.0834C13.2745 12.0847 13.4543 12.0247 13.601 11.9129C13.7478 11.801 13.8532 11.6436 13.9009 11.4654C13.9486 11.2871 13.9357 11.0981 13.8644 10.9279C13.793 10.7577 13.6672 10.6161 13.5067 10.5251H13.5234Z" fill="#00A9DE"/>
</svg>
