<svg width="20" height="20" viewBox="0 0 20 20" fill="none" xmlns="http://www.w3.org/2000/svg">
<path d="M17.5001 5H2.50008C2.27907 5 2.06711 5.0878 1.91083 5.24408C1.75455 5.40036 1.66675 5.61232 1.66675 5.83333C1.66675 6.05435 1.75455 6.26631 1.91083 6.42259C2.06711 6.57887 2.27907 6.66667 2.50008 6.66667H17.5001C17.7211 6.66667 17.9331 6.57887 18.0893 6.42259C18.2456 6.26631 18.3334 6.05435 18.3334 5.83333C18.3334 5.61232 18.2456 5.40036 18.0893 5.24408C17.9331 5.0878 17.7211 5 17.5001 5Z" fill="#959595"/>
<path d="M5.83333 9.16663H14.1667C14.3877 9.16663 14.5996 9.25442 14.7559 9.4107C14.9122 9.56698 15 9.77895 15 9.99996C15 10.221 14.9122 10.4329 14.7559 10.5892C14.5996 10.7455 14.3877 10.8333 14.1667 10.8333H5.83333C5.61232 10.8333 5.40036 10.7455 5.24408 10.5892C5.0878 10.4329 5 10.221 5 9.99996C5 9.77895 5.0878 9.56698 5.24408 9.4107C5.40036 9.25442 5.61232 9.16663 5.83333 9.16663Z" fill="#959595"/>
<path d="M8.33333 13.3334H11.9107C12.1318 13.3334 12.3437 13.4212 12.5 13.5775C12.6563 13.7337 12.7441 13.9457 12.7441 14.1667C12.7441 14.3877 12.6563 14.5997 12.5 14.756C12.3437 14.9122 12.1318 15 11.9107 15H8.33333C8.11232 15 7.90036 14.9122 7.74408 14.756C7.5878 14.5997 7.5 14.3877 7.5 14.1667C7.5 13.9457 7.5878 13.7337 7.74408 13.5775C7.90036 13.4212 8.11232 13.3334 8.33333 13.3334Z" fill="#959595"/>
</svg>
