<svg width="16" height="16" viewBox="0 0 16 16" fill="none" xmlns="http://www.w3.org/2000/svg">
<path d="M4.66659 6.66671H5.99992C6.17673 6.66671 6.3463 6.59647 6.47132 6.47145C6.59635 6.34642 6.66659 6.17685 6.66659 6.00004C6.66659 5.82323 6.59635 5.65366 6.47132 5.52864C6.3463 5.40361 6.17673 5.33337 5.99992 5.33337H4.66659C4.48977 5.33337 4.32021 5.40361 4.19518 5.52864C4.07016 5.65366 3.99992 5.82323 3.99992 6.00004C3.99992 6.17685 4.07016 6.34642 4.19518 6.47145C4.32021 6.59647 4.48977 6.66671 4.66659 6.66671ZM13.9999 2.66671H8.66659V2.00004C8.66659 1.82323 8.59635 1.65366 8.47132 1.52864C8.3463 1.40361 8.17673 1.33337 7.99992 1.33337C7.82311 1.33337 7.65354 1.40361 7.52851 1.52864C7.40349 1.65366 7.33325 1.82323 7.33325 2.00004V2.66671H1.99992C1.82311 2.66671 1.65354 2.73695 1.52851 2.86197C1.40349 2.98699 1.33325 3.15656 1.33325 3.33337V10C1.33325 10.5305 1.54397 11.0392 1.91904 11.4143C2.29411 11.7893 2.80282 12 3.33325 12H6.39325L4.85992 13.5267C4.79743 13.5887 4.74784 13.6624 4.71399 13.7437C4.68015 13.8249 4.66272 13.912 4.66272 14C4.66272 14.088 4.68015 14.1752 4.71399 14.2564C4.74784 14.3377 4.79743 14.4114 4.85992 14.4734C4.92189 14.5359 4.99563 14.5855 5.07687 14.6193C5.15811 14.6531 5.24524 14.6706 5.33325 14.6706C5.42126 14.6706 5.5084 14.6531 5.58964 14.6193C5.67088 14.5855 5.74461 14.5359 5.80659 14.4734L7.33325 12.94V14C7.33325 14.1769 7.40349 14.3464 7.52851 14.4714C7.65354 14.5965 7.82311 14.6667 7.99992 14.6667C8.17673 14.6667 8.3463 14.5965 8.47132 14.4714C8.59635 14.3464 8.66659 14.1769 8.66659 14V12.94L10.1933 14.4734C10.2552 14.5359 10.329 14.5855 10.4102 14.6193C10.4914 14.6531 10.5786 14.6706 10.6666 14.6706C10.7546 14.6706 10.8417 14.6531 10.923 14.6193C11.0042 14.5855 11.0779 14.5359 11.1399 14.4734C11.2024 14.4114 11.252 14.3377 11.2858 14.2564C11.3197 14.1752 11.3371 14.088 11.3371 14C11.3371 13.912 11.3197 13.8249 11.2858 13.7437C11.252 13.6624 11.2024 13.5887 11.1399 13.5267L9.60659 12H12.6666C13.197 12 13.7057 11.7893 14.0808 11.4143C14.4559 11.0392 14.6666 10.5305 14.6666 10V3.33337C14.6666 3.15656 14.5963 2.98699 14.4713 2.86197C14.3463 2.73695 14.1767 2.66671 13.9999 2.66671ZM13.3333 10C13.3333 10.1769 13.263 10.3464 13.138 10.4714C13.013 10.5965 12.8434 10.6667 12.6666 10.6667H3.33325C3.15644 10.6667 2.98687 10.5965 2.86185 10.4714C2.73682 10.3464 2.66659 10.1769 2.66659 10V4.00004H13.3333V10ZM4.66659 9.33337H8.66659C8.8434 9.33337 9.01297 9.26314 9.13799 9.13811C9.26301 9.01309 9.33325 8.84352 9.33325 8.66671C9.33325 8.4899 9.26301 8.32033 9.13799 8.1953C9.01297 8.07028 8.8434 8.00004 8.66659 8.00004H4.66659C4.48977 8.00004 4.32021 8.07028 4.19518 8.1953C4.07016 8.32033 3.99992 8.4899 3.99992 8.66671C3.99992 8.84352 4.07016 9.01309 4.19518 9.13811C4.32021 9.26314 4.48977 9.33337 4.66659 9.33337Z" fill="#959595"/>
</svg>
