<svg width="21" height="20" viewBox="0 0 21 20" fill="none" xmlns="http://www.w3.org/2000/svg">
<path d="M16.0067 10.3501L10.8567 15.5084C10.1815 16.1084 9.30261 16.4278 8.39976 16.4012C7.49691 16.3747 6.63833 16.0041 5.99964 15.3655C5.36095 14.7268 4.99042 13.8682 4.96384 12.9653C4.93726 12.0625 5.25665 11.1836 5.85666 10.5084L12.5233 3.84176C12.9213 3.46368 13.4494 3.25287 13.9983 3.25287C14.5473 3.25287 15.0753 3.46368 15.4733 3.84176C15.8611 4.23475 16.0785 4.76465 16.0785 5.31676C16.0785 5.86887 15.8611 6.39877 15.4733 6.79176L9.72333 12.5334C9.66642 12.5947 9.598 12.6442 9.52197 12.679C9.44595 12.7139 9.3638 12.7334 9.28023 12.7365C9.19666 12.7396 9.11329 12.7262 9.0349 12.6971C8.9565 12.6679 8.88461 12.6237 8.82333 12.5668C8.76204 12.5099 8.71257 12.4414 8.67773 12.3654C8.64288 12.2894 8.62336 12.2072 8.62026 12.1237C8.61717 12.0401 8.63056 11.9567 8.65969 11.8783C8.68881 11.7999 8.73309 11.728 8.78999 11.6668L13.065 7.4001C13.2219 7.24318 13.3101 7.03035 13.3101 6.80843C13.3101 6.58651 13.2219 6.37368 13.065 6.21676C12.9081 6.05984 12.6952 5.97169 12.4733 5.97169C12.2514 5.97169 12.0386 6.05984 11.8817 6.21676L7.60666 10.5001C7.39275 10.7123 7.22296 10.9648 7.1071 11.243C6.99124 11.5212 6.93159 11.8196 6.93159 12.1209C6.93159 12.4223 6.99124 12.7206 7.1071 12.9988C7.22296 13.277 7.39275 13.5295 7.60666 13.7418C8.04364 14.158 8.624 14.3902 9.22749 14.3902C9.83099 14.3902 10.4113 14.158 10.8483 13.7418L16.59 7.99176C17.2524 7.28089 17.613 6.34065 17.5959 5.36915C17.5787 4.39764 17.1852 3.47072 16.4981 2.78365C15.811 2.09659 14.8841 1.70303 13.9126 1.68589C12.9411 1.66875 12.0009 2.02936 11.29 2.69176L4.62333 9.35843C3.72433 10.3541 3.24418 11.6583 3.28294 12.9992C3.32169 14.3402 3.87635 15.6145 4.83136 16.5566C5.78636 17.4987 7.06806 18.036 8.4094 18.0565C9.75074 18.077 11.0483 17.5792 12.0317 16.6668L17.19 11.5168C17.2677 11.4391 17.3293 11.3468 17.3714 11.2453C17.4134 11.1438 17.4351 11.035 17.4351 10.9251C17.4351 10.8152 17.4134 10.7064 17.3714 10.6049C17.3293 10.5034 17.2677 10.4111 17.19 10.3334C17.1123 10.2557 17.0201 10.1941 16.9185 10.152C16.817 10.11 16.7082 10.0884 16.5983 10.0884C16.4884 10.0884 16.3796 10.11 16.2781 10.152C16.1766 10.1941 16.0844 10.2557 16.0067 10.3334V10.3501Z" fill="#A7A7A7"/>
</svg>
