<svg width="21" height="20" viewBox="0 0 21 20" fill="none" xmlns="http://www.w3.org/2000/svg">
<path d="M16.0067 10.35L10.8567 15.5083C10.1815 16.1083 9.30261 16.4277 8.39976 16.4011C7.49691 16.3745 6.63833 16.004 5.99964 15.3653C5.36095 14.7266 4.99042 13.8681 4.96384 12.9652C4.93726 12.0624 5.25665 11.1835 5.85666 10.5083L12.5233 3.84164C12.9213 3.46356 13.4494 3.25275 13.9983 3.25275C14.5473 3.25275 15.0753 3.46356 15.4733 3.84164C15.8611 4.23463 16.0785 4.76453 16.0785 5.31664C16.0785 5.86875 15.8611 6.39865 15.4733 6.79164L9.72333 12.5333C9.66642 12.5946 9.598 12.6441 9.52197 12.6789C9.44595 12.7137 9.3638 12.7333 9.28023 12.7364C9.19666 12.7395 9.11329 12.7261 9.0349 12.6969C8.9565 12.6678 8.88461 12.6235 8.82333 12.5666C8.76204 12.5097 8.71257 12.4413 8.67773 12.3653C8.64288 12.2893 8.62336 12.2071 8.62026 12.1235C8.61717 12.04 8.63056 11.9566 8.65969 11.8782C8.68881 11.7998 8.73309 11.7279 8.78999 11.6666L13.065 7.39997C13.2219 7.24305 13.3101 7.03022 13.3101 6.80831C13.3101 6.58639 13.2219 6.37356 13.065 6.21664C12.9081 6.05972 12.6952 5.97156 12.4733 5.97156C12.2514 5.97156 12.0386 6.05972 11.8817 6.21664L7.60666 10.5C7.39275 10.7122 7.22296 10.9647 7.1071 11.2429C6.99124 11.5211 6.93159 11.8195 6.93159 12.1208C6.93159 12.4222 6.99124 12.7205 7.1071 12.9987C7.22296 13.2769 7.39275 13.5294 7.60666 13.7416C8.04364 14.1579 8.624 14.3901 9.22749 14.3901C9.83099 14.3901 10.4113 14.1579 10.8483 13.7416L16.59 7.99164C17.2524 7.28077 17.613 6.34053 17.5959 5.36903C17.5787 4.39752 17.1852 3.4706 16.4981 2.78353C15.811 2.09647 14.8841 1.70291 13.9126 1.68576C12.9411 1.66862 12.0009 2.02924 11.29 2.69164L4.62333 9.35831C3.72433 10.354 3.24418 11.6582 3.28294 12.9991C3.32169 14.3401 3.87635 15.6143 4.83136 16.5564C5.78636 17.4986 7.06806 18.0359 8.4094 18.0564C9.75074 18.0769 11.0483 17.5791 12.0317 16.6666L17.19 11.5166C17.2677 11.4389 17.3293 11.3467 17.3714 11.2452C17.4134 11.1437 17.4351 11.0349 17.4351 10.925C17.4351 10.8151 17.4134 10.7063 17.3714 10.6048C17.3293 10.5032 17.2677 10.411 17.19 10.3333C17.1123 10.2556 17.0201 10.194 16.9185 10.1519C16.817 10.1099 16.7082 10.0882 16.5983 10.0882C16.4884 10.0882 16.3796 10.1099 16.2781 10.1519C16.1766 10.194 16.0844 10.2556 16.0067 10.3333V10.35Z" fill="#A7A7A7"/>
</svg>
