<svg width="20" height="20" viewBox="0 0 20 20" fill="none" xmlns="http://www.w3.org/2000/svg">
<path d="M4.75841 5.24167C4.67915 5.1658 4.5857 5.10633 4.48341 5.06667C4.28052 4.98332 4.05296 4.98332 3.85007 5.06667C3.74778 5.10633 3.65433 5.1658 3.57507 5.24167L1.90841 6.90833C1.75149 7.06525 1.66333 7.27808 1.66333 7.5C1.66333 7.72192 1.75149 7.93475 1.90841 8.09167C2.06533 8.24859 2.27816 8.33674 2.50007 8.33674C2.72199 8.33674 2.93482 8.24859 3.09174 8.09167L3.33341 7.84167V14.1667C3.33341 14.3877 3.4212 14.5996 3.57748 14.7559C3.73376 14.9122 3.94573 15 4.16674 15C4.38775 15 4.59972 14.9122 4.756 14.7559C4.91228 14.5996 5.00007 14.3877 5.00007 14.1667V7.84167L5.24174 8.09167C5.31921 8.16977 5.41138 8.23177 5.51293 8.27408C5.61448 8.31638 5.7234 8.33817 5.83341 8.33817C5.94342 8.33817 6.05234 8.31638 6.15389 8.27408C6.25544 8.23177 6.3476 8.16977 6.42507 8.09167C6.50318 8.0142 6.56518 7.92203 6.60748 7.82048C6.64979 7.71893 6.67157 7.61001 6.67157 7.5C6.67157 7.38999 6.64979 7.28107 6.60748 7.17952C6.56518 7.07797 6.50318 6.9858 6.42507 6.90833L4.75841 5.24167ZM9.16674 6.66667H17.5001C17.7211 6.66667 17.9331 6.57887 18.0893 6.42259C18.2456 6.26631 18.3334 6.05435 18.3334 5.83333C18.3334 5.61232 18.2456 5.40036 18.0893 5.24408C17.9331 5.0878 17.7211 5 17.5001 5H9.16674C8.94573 5 8.73376 5.0878 8.57748 5.24408C8.4212 5.40036 8.33341 5.61232 8.33341 5.83333C8.33341 6.05435 8.4212 6.26631 8.57748 6.42259C8.73376 6.57887 8.94573 6.66667 9.16674 6.66667ZM17.5001 13.3333H9.16674C8.94573 13.3333 8.73376 13.4211 8.57748 13.5774C8.4212 13.7337 8.33341 13.9457 8.33341 14.1667C8.33341 14.3877 8.4212 14.5996 8.57748 14.7559C8.73376 14.9122 8.94573 15 9.16674 15H17.5001C17.7211 15 17.9331 14.9122 18.0893 14.7559C18.2456 14.5996 18.3334 14.3877 18.3334 14.1667C18.3334 13.9457 18.2456 13.7337 18.0893 13.5774C17.9331 13.4211 17.7211 13.3333 17.5001 13.3333ZM17.5001 9.16667H9.16674C8.94573 9.16667 8.73376 9.25446 8.57748 9.41074C8.4212 9.56702 8.33341 9.77899 8.33341 10C8.33341 10.221 8.4212 10.433 8.57748 10.5893C8.73376 10.7455 8.94573 10.8333 9.16674 10.8333H17.5001C17.7211 10.8333 17.9331 10.7455 18.0893 10.5893C18.2456 10.433 18.3334 10.221 18.3334 10C18.3334 9.77899 18.2456 9.56702 18.0893 9.41074C17.9331 9.25446 17.7211 9.16667 17.5001 9.16667Z" fill="#959595"/>
</svg>
